<svg width="50" height="30" viewBox="0 0 50 30" fill="none" xmlns="http://www.w3.org/2000/svg">
<path d="M8.75 2.5C8.75 1.11719 9.86719 0 11.25 0H12.5C13.8828 0 15 1.11719 15 2.5V12.5V17.5V27.5C15 28.8828 13.8828 30 12.5 30H11.25C9.86719 30 8.75 28.8828 8.75 27.5V25H5C3.61719 25 2.5 23.8828 2.5 22.5V17.5C1.11719 17.5 0 16.3828 0 15C0 13.6172 1.11719 12.5 2.5 12.5V7.5C2.5 6.11719 3.61719 5 5 5H8.75V2.5ZM41.25 2.5V5H45C46.3828 5 47.5 6.11719 47.5 7.5V12.5C48.8828 12.5 50 13.6172 50 15C50 16.3828 48.8828 17.5 47.5 17.5V22.5C47.5 23.8828 46.3828 25 45 25H41.25V27.5C41.25 28.8828 40.1328 30 38.75 30H37.5C36.1172 30 35 28.8828 35 27.5V17.5V12.5V2.5C35 1.11719 36.1172 0 37.5 0H38.75C40.1328 0 41.25 1.11719 41.25 2.5ZM32.5 12.5V17.5H17.5V12.5H32.5Z" fill="#383B58"/>
</svg>
