<svg width="50" height="50" viewBox="0 0 50 50" fill="none" xmlns="http://www.w3.org/2000/svg">
<g clip-path="url(#clip0_19853_9282)">
<path d="M8.59375 0C7.29492 0 6.25 1.04492 6.25 2.34375C6.25 6.14258 8.53516 8.14453 10.0684 9.48242L10.1758 9.58008C11.7676 10.9668 12.5 11.709 12.5 13.2812C12.5 14.5801 13.5449 15.625 14.8438 15.625C16.1426 15.625 17.1875 14.5801 17.1875 13.2812C17.1875 9.48242 14.9023 7.48047 13.3691 6.14258L13.2617 6.04492C11.6699 4.6582 10.9375 3.91602 10.9375 2.34375C10.9375 1.04492 9.89258 0 8.59375 0ZM3.125 18.75C1.39648 18.75 0 20.1465 0 21.875V40.625C0 45.8008 4.19922 50 9.375 50H28.125C33.3008 50 37.5 45.8008 37.5 40.625H39.0625C45.1074 40.625 50 35.7324 50 29.6875C50 23.6426 45.1074 18.75 39.0625 18.75H34.375H3.125ZM37.5 25H39.0625C41.6504 25 43.75 27.0996 43.75 29.6875C43.75 32.2754 41.6504 34.375 39.0625 34.375H37.5V25ZM21.875 2.34375C21.875 1.04492 20.8301 0 19.5312 0C18.2324 0 17.1875 1.04492 17.1875 2.34375C17.1875 6.14258 19.4727 8.14453 21.0059 9.48242L21.1133 9.58008C22.7051 10.9668 23.4375 11.709 23.4375 13.2812C23.4375 14.5801 24.4824 15.625 25.7812 15.625C27.0801 15.625 28.125 14.5801 28.125 13.2812C28.125 9.48242 25.8398 7.48047 24.3066 6.14258L24.1992 6.04492C22.6074 4.6582 21.875 3.91602 21.875 2.34375Z" fill="#383B58"/>
</g>
<defs>
<clipPath id="clip0_19853_9282">
<rect width="50" height="50" fill="white"/>
</clipPath>
</defs>
</svg>
