<svg width="50" height="28" viewBox="0 0 50 28" fill="none" xmlns="http://www.w3.org/2000/svg">
<path d="M26.8667 7.15611L38.8832 17.4647C38.7443 17.5429 38.6054 17.6384 38.4664 17.7253C36.9036 18.8022 34.9848 19.4883 33.3264 19.4883C31.6247 19.4883 29.784 18.8195 28.1865 17.7253C26.2676 16.3792 23.7063 16.3792 21.7875 17.7253C20.3028 18.7501 18.4882 19.4883 16.6475 19.4883C15.7706 19.4883 14.8155 19.2972 13.8778 18.9498C14.1557 8.44144 22.7599 0 33.3351 0H38.8919C40.4287 0 41.6702 1.2419 41.6702 2.77907C41.6702 4.31625 40.4287 5.55815 38.8919 5.55815H33.3351C30.9996 5.55815 28.7942 6.13133 26.8667 7.15611ZM13.8865 5.55815C13.8865 7.03226 13.3011 8.446 12.259 9.48835C11.2169 10.5307 9.8035 11.1163 8.32976 11.1163C6.85602 11.1163 5.44264 10.5307 4.40055 9.48835C3.35845 8.446 2.77301 7.03226 2.77301 5.55815C2.77301 4.08404 3.35845 2.6703 4.40055 1.62794C5.44264 0.585589 6.85602 0 8.32976 0C9.8035 0 11.2169 0.585589 12.259 1.62794C13.3011 2.6703 13.8865 4.08404 13.8865 5.55815ZM26.6063 19.9659C28.5598 21.312 30.9475 22.2326 33.3351 22.2326C35.6707 22.2326 38.1452 21.2947 40.0553 19.9659C41.0885 19.2277 42.4951 19.2885 43.4588 20.1135C44.7091 21.147 46.2806 21.9373 47.8521 22.3021C49.3455 22.6494 50.2745 24.1432 49.9272 25.637C49.5799 27.1307 48.0866 28.06 46.5932 27.7126C44.466 27.2176 42.6948 26.2796 41.54 25.5414C39.0221 26.8962 36.2003 27.7907 33.3351 27.7907C30.5654 27.7907 28.0736 26.931 26.3545 26.1493C25.8509 25.9149 25.3907 25.6891 25 25.4806C24.6093 25.6891 24.1578 25.9235 23.6455 26.1493C21.9264 26.931 19.4346 27.7907 16.6649 27.7907C13.7997 27.7907 10.9779 26.8962 8.46 25.5501C7.29655 26.2796 5.53402 27.2262 3.40683 27.7213C1.91345 28.0686 0.420077 27.1394 0.0727805 25.6456C-0.274516 24.1519 0.654502 22.6581 2.14788 22.3108C3.7194 21.946 5.29091 21.1557 6.54118 20.1222C7.50493 19.3059 8.91148 19.2451 9.94469 19.9746C11.8635 21.2947 14.3293 22.2326 16.6649 22.2326C19.0525 22.2326 21.4402 21.312 23.3938 19.9659C24.3575 19.2798 25.6425 19.2798 26.6063 19.9659Z" fill="#383B58"/>
</svg>
