<svg width="80" height="72" viewBox="0 0 80 72" fill="none" xmlns="http://www.w3.org/2000/svg">
<g filter="url(#filter0_dd_14839_17508)">
<g clip-path="url(#clip0_14839_17508)">
<path d="M72.6787 9H7.32134C5.48701 9 4 10.4657 4 12.2736V58.7264C4 60.5343 5.48701 62 7.32134 62H72.6787C74.513 62 76 60.5343 76 58.7264V12.2736C76 10.4657 74.513 9 72.6787 9Z" fill="#545776"/>
<path d="M52.0733 45.5271C51.0091 45.526 49.9462 45.456 48.8914 45.3176C47.9061 45.1996 46.9424 44.9462 46.0284 44.5647C45.2301 44.2413 44.5283 43.7231 43.9891 43.0588C43.454 42.3372 43.1845 41.4573 43.2252 40.5643V18.9125H48.7984V29.2899L47.7289 27.5222C48.212 26.9805 48.811 26.5512 49.4826 26.2651C50.1758 25.9575 50.9056 25.7375 51.6548 25.6104C52.2596 25.498 52.8728 25.4345 53.4882 25.4205C56.3356 25.4205 58.5034 26.2673 59.9913 27.9608C61.4793 29.6544 62.2233 32.1293 62.2233 35.3854C62.269 37.022 62.0101 38.653 61.4594 40.1977C61.0202 41.3958 60.2878 42.4685 59.3271 43.3207C58.3937 44.1053 57.2992 44.6815 56.1187 45.0099C54.8021 45.3716 53.4399 45.5458 52.0733 45.5271ZM52.0002 40.8655C52.932 40.9103 53.8565 40.6825 54.6573 40.2108C55.3175 39.7691 55.8178 39.1315 56.0854 38.3906C56.391 37.5328 56.5394 36.6283 56.5239 35.7193C56.5725 34.5515 56.3781 33.3861 55.9526 32.2951C55.648 31.5315 55.1002 30.8859 54.3916 30.4554C53.6924 30.0692 52.9011 29.8747 52.0998 29.8923C51.537 29.897 50.9761 29.9585 50.4259 30.0756C49.8503 30.1904 49.2966 30.3936 48.7851 30.678V39.1043C48.7715 39.2986 48.8019 39.4934 48.8743 39.6746C48.9467 39.8559 49.0592 40.0189 49.2036 40.1518C49.5366 40.4308 49.937 40.6202 50.3661 40.7018C50.9026 40.8189 51.4507 40.876 52.0002 40.872V40.8655Z" fill="white"/>
<path d="M18.1426 44.9641V19.8881H28.3657C32.6923 19.8881 35.8719 20.9487 37.9045 23.07C39.9372 25.1914 40.9535 28.3122 40.9535 32.4326C40.9535 36.5443 39.9372 39.6586 37.9045 41.7755C35.8719 43.8925 32.6923 44.951 28.3657 44.951L18.1426 44.9641ZM24.3203 40.2697H27.6416C29.9311 40.2697 31.6671 39.6433 32.8495 38.3906C34.0319 37.1335 34.6231 35.1563 34.6231 32.4457C34.6231 29.7352 34.0319 27.6924 32.8495 26.4484C31.6671 25.2045 29.9333 24.5759 27.6416 24.5759H24.3203V40.2697Z" fill="white"/>
<path d="M38.6085 50.4309V52.0743H17.7837V50.4178L38.6085 50.4309Z" fill="white"/>
<path d="M59.4332 50.4309V52.0743H38.6084V50.4178L59.4332 50.4309Z" fill="white"/>
</g>
</g>
<defs>
<filter id="filter0_dd_14839_17508" x="0" y="9" width="80" height="61" filterUnits="userSpaceOnUse" color-interpolation-filters="sRGB">
<feFlood flood-opacity="0" result="BackgroundImageFix"/>
<feColorMatrix in="SourceAlpha" type="matrix" values="0 0 0 0 0 0 0 0 0 0 0 0 0 0 0 0 0 0 127 0" result="hardAlpha"/>
<feOffset dy="4"/>
<feGaussianBlur stdDeviation="2"/>
<feComposite in2="hardAlpha" operator="out"/>
<feColorMatrix type="matrix" values="0 0 0 0 0 0 0 0 0 0 0 0 0 0 0 0 0 0 0.25 0"/>
<feBlend mode="normal" in2="BackgroundImageFix" result="effect1_dropShadow_14839_17508"/>
<feColorMatrix in="SourceAlpha" type="matrix" values="0 0 0 0 0 0 0 0 0 0 0 0 0 0 0 0 0 0 127 0" result="hardAlpha"/>
<feOffset dy="4"/>
<feGaussianBlur stdDeviation="2"/>
<feComposite in2="hardAlpha" operator="out"/>
<feColorMatrix type="matrix" values="0 0 0 0 0 0 0 0 0 0 0 0 0 0 0 0 0 0 0.25 0"/>
<feBlend mode="normal" in2="effect1_dropShadow_14839_17508" result="effect2_dropShadow_14839_17508"/>
<feBlend mode="normal" in="SourceGraphic" in2="effect2_dropShadow_14839_17508" result="shape"/>
</filter>
<clipPath id="clip0_14839_17508">
<rect width="72" height="53" fill="white" transform="translate(4 9)"/>
</clipPath>
</defs>
</svg>
