<svg width="41" height="41" viewBox="0 0 41 41" fill="none" xmlns="http://www.w3.org/2000/svg">
<g filter="url(#filter0_ddd_19859_9642)">
<circle cx="20.5" cy="19.5" r="17.5" transform="rotate(-180 20.5 19.5)" fill="#F0572D"/>
</g>
<path d="M22.4903 26.9997C22.7196 27.0046 22.9447 26.9404 23.1345 26.8158C23.3242 26.6912 23.4691 26.5125 23.5489 26.3046C23.6288 26.0967 23.6397 25.87 23.5802 25.6559C23.5206 25.4417 23.3935 25.251 23.2165 25.1099L16.4651 19.5172L23.2165 13.9266C23.3389 13.8396 23.4415 13.7292 23.5176 13.6021C23.5938 13.475 23.6421 13.3341 23.6594 13.1881C23.6766 13.0422 23.6625 12.8944 23.618 12.754C23.5734 12.6136 23.4994 12.4835 23.4005 12.372C23.3016 12.2606 23.1799 12.1702 23.0431 12.1063C22.9063 12.0423 22.7574 12.0065 22.6056 12.0008C22.4538 11.9951 22.3024 12.0198 22.161 12.0733C22.0195 12.1268 21.891 12.208 21.7835 12.3118L14.0537 18.7067C13.9323 18.8069 13.8348 18.9312 13.768 19.0713C13.7011 19.2114 13.6665 19.3639 13.6665 19.5182C13.6665 19.6725 13.7011 19.825 13.768 19.9652C13.8348 20.1053 13.9323 20.2297 14.0537 20.3299L21.7835 26.731C21.9788 26.8987 22.2292 26.9938 22.4903 26.9997Z" fill="white"/>
<defs>
<filter id="filter0_ddd_19859_9642" x="0" y="0" width="41" height="41" filterUnits="userSpaceOnUse" color-interpolation-filters="sRGB">
<feFlood flood-opacity="0" result="BackgroundImageFix"/>
<feColorMatrix in="SourceAlpha" type="matrix" values="0 0 0 0 0 0 0 0 0 0 0 0 0 0 0 0 0 0 127 0" result="hardAlpha"/>
<feOffset dy="1"/>
<feGaussianBlur stdDeviation="1.5"/>
<feColorMatrix type="matrix" values="0 0 0 0 0 0 0 0 0 0 0 0 0 0 0 0 0 0 0.2 0"/>
<feBlend mode="normal" in2="BackgroundImageFix" result="effect1_dropShadow_19859_9642"/>
<feColorMatrix in="SourceAlpha" type="matrix" values="0 0 0 0 0 0 0 0 0 0 0 0 0 0 0 0 0 0 127 0" result="hardAlpha"/>
<feOffset dy="2"/>
<feGaussianBlur stdDeviation="0.5"/>
<feColorMatrix type="matrix" values="0 0 0 0 0 0 0 0 0 0 0 0 0 0 0 0 0 0 0.12 0"/>
<feBlend mode="normal" in2="effect1_dropShadow_19859_9642" result="effect2_dropShadow_19859_9642"/>
<feColorMatrix in="SourceAlpha" type="matrix" values="0 0 0 0 0 0 0 0 0 0 0 0 0 0 0 0 0 0 127 0" result="hardAlpha"/>
<feOffset dy="1"/>
<feGaussianBlur stdDeviation="0.5"/>
<feColorMatrix type="matrix" values="0 0 0 0 0 0 0 0 0 0 0 0 0 0 0 0 0 0 0.14 0"/>
<feBlend mode="normal" in2="effect2_dropShadow_19859_9642" result="effect3_dropShadow_19859_9642"/>
<feBlend mode="normal" in="SourceGraphic" in2="effect3_dropShadow_19859_9642" result="shape"/>
</filter>
</defs>
</svg>
