<svg width="53" height="53" viewBox="0 0 53 53" fill="none" xmlns="http://www.w3.org/2000/svg">
<g clip-path="url(#clip0_16063_12362)">
<path d="M26.5 53C41.1371 53 53 41.1371 53 26.5C53 11.8629 41.1371 0 26.5 0C11.8629 0 0 11.8629 0 26.5C0 41.1371 11.8629 53 26.5 53ZM18.1152 18.1152C19.0883 17.1422 20.6617 17.1422 21.6244 18.1152L26.4896 22.9805L31.3549 18.1152C32.3279 17.1422 33.9014 17.1422 34.8641 18.1152C35.8268 19.0883 35.8371 20.6617 34.8641 21.6244L29.9988 26.4896L34.8641 31.3549C35.8371 32.3279 35.8371 33.9014 34.8641 34.8641C33.891 35.8268 32.3176 35.8371 31.3549 34.8641L26.4896 29.9988L21.6244 34.8641C20.6514 35.8371 19.0779 35.8371 18.1152 34.8641C17.1525 33.891 17.1422 32.3176 18.1152 31.3549L22.9805 26.4896L18.1152 21.6244C17.1422 20.6514 17.1422 19.0779 18.1152 18.1152Z" fill="#31363F"/>
</g>
<defs>
<clipPath id="clip0_16063_12362">
<rect width="53" height="53" fill="white"/>
</clipPath>
</defs>
</svg>
